<svg width="59" height="22" viewBox="0 0 59 22" fill="none" xmlns="http://www.w3.org/2000/svg">
<path fill-rule="evenodd" clip-rule="evenodd" d="M30.8343 18.4306V13.0139L24.6156 10.5747L27.8795 7.365L23.6019 3.52283L22.3888 5.87456L22.4353 3.61367L17.0144 5.36653L17.154 8.31377L18.0746 8.07153L19.0319 18.471L22.8541 17.9024L22.8474 14.4303L30.8343 18.4306Z" fill="#0B0000"/>
<path fill-rule="evenodd" clip-rule="evenodd" d="M18.0346 6.12303L21.3284 5.13052L21.5312 8.5656L23.9575 5.11707L26.3272 7.40151L23.0135 10.9375L29.8337 13.6728V16.8186L21.9101 12.8048L21.9234 17.0103L19.8726 17.2929L18.9985 6.77236L18.0745 7.0146L18.0346 6.12303Z" fill="white"/>
<path fill-rule="evenodd" clip-rule="evenodd" d="M43.0086 4.0405H39.419L39.316 4.636H35.5403L33.7754 15.5603L38.0829 16.2466L38.3189 14.6788L39.4456 16.7816L40.1303 15.4392L40.3829 17.6429L45.2654 18.5143L43.0086 4.0405Z" fill="#0B0000"/>
<path fill-rule="evenodd" clip-rule="evenodd" d="M40.363 5.05042H42.191L44.0423 17.2196L41.3435 16.8024L40.6256 11.9879L39.6118 14.6424L38.0896 11.3251H38.073L37.4714 15.1706L34.9421 14.7231L36.4477 5.61227H39.0069L39.6451 9.14493L40.363 5.05042Z" fill="white"/>
<path fill-rule="evenodd" clip-rule="evenodd" d="M47.5789 5.03659L52.9799 6.23769L53.382 8.25635L53.8174 6.43619L58.4141 7.56328L54.0002 21.0244L50.6134 19.9444L50.5868 18.5952L47.3362 18.1343L48.4331 8.25635L47.6188 8.07131L47.5789 5.03659Z" fill="#0B0000"/>
<path fill-rule="evenodd" clip-rule="evenodd" d="M48.5395 6.2981L52.0593 7.01472L53.2459 12.7006L54.459 7.60349L57.1379 8.20573L53.3655 19.7726L51.491 19.204L51.3281 12.2128L50.3842 17.6059L48.3401 17.2796L49.2575 7.48574L48.4864 7.27714L48.5395 6.2981Z" fill="white"/>
<path fill-rule="evenodd" clip-rule="evenodd" d="M47.0604 16.5797C45.8938 17.0238 44.6541 16.9733 43.657 16.435C42.733 15.9404 42.0882 15.0825 41.8389 14.0227C41.3404 11.9098 42.7197 9.49755 44.9133 8.64635C46.0932 8.19551 47.3429 8.24935 48.3467 8.79102C49.2607 9.28222 49.8989 10.12 50.1415 11.1495C50.65 13.2926 49.2707 15.7285 47.0604 16.5797Z" fill="#0B0000"/>
<path fill-rule="evenodd" clip-rule="evenodd" d="M49.2866 11.3451C48.8878 9.64943 47.0996 8.79823 45.265 9.49803C43.4868 10.1877 42.3202 12.1357 42.7223 13.8314C43.1345 15.5809 44.906 16.4288 46.7407 15.729C48.5321 15.0426 49.6987 13.0811 49.2866 11.3451Z" fill="white"/>
<path fill-rule="evenodd" clip-rule="evenodd" d="M47.954 11.644C47.9175 12.5793 47.1131 13.2858 46.1293 13.2454C45.1621 13.2051 44.4176 12.438 44.4542 11.5026C44.4907 10.6245 45.2917 9.918 46.2756 9.95837C47.2461 9.99875 47.9906 10.7658 47.954 11.644Z" fill="#0B0000"/>
<path fill-rule="evenodd" clip-rule="evenodd" d="M46.704 9.99874C46.1157 9.97519 45.6238 10.3856 45.6005 10.9139C45.5806 11.4421 46.0392 11.8929 46.6275 11.9165C47.2158 11.94 47.7077 11.5296 47.731 11.0013C47.7509 10.4731 47.2923 10.0223 46.704 9.99874Z" fill="white"/>
<path fill-rule="evenodd" clip-rule="evenodd" d="M17.2831 17.7577C16.0898 18.2691 14.7969 18.2691 13.7367 17.7543C12.7562 17.2766 12.0482 16.4153 11.7458 15.3218C11.1409 13.1451 12.4737 10.578 14.7205 9.59895C15.927 9.08419 17.2299 9.08419 18.2968 9.60567C19.2673 10.0767 19.9653 10.9212 20.2611 11.981C20.8793 14.188 19.5432 16.782 17.2831 17.7577Z" fill="#0B0000"/>
<path fill-rule="evenodd" clip-rule="evenodd" d="M19.407 12.1154C18.9151 10.3525 17.0073 9.53829 15.1128 10.3525C13.2748 11.1532 12.1348 13.2459 12.6267 15.0089C13.1319 16.829 15.0264 17.6398 16.9209 16.829C18.7722 16.0283 19.9122 13.9188 19.407 12.1154Z" fill="white"/>
<path fill-rule="evenodd" clip-rule="evenodd" d="M18.1244 12.4517C18.1244 13.387 17.35 14.1238 16.3662 14.1238C15.399 14.1238 14.6246 13.387 14.6246 12.4517C14.6246 11.5736 15.399 10.8334 16.3828 10.8334C17.35 10.8334 18.1244 11.5702 18.1244 12.4517Z" fill="#0B0000"/>
<path fill-rule="evenodd" clip-rule="evenodd" d="M16.8111 10.8569C16.2228 10.8569 15.7442 11.2875 15.7442 11.8157C15.7442 12.3439 16.2195 12.7746 16.8111 12.7746C17.3994 12.7746 17.878 12.3439 17.878 11.8157C17.878 11.2875 17.3994 10.8569 16.8111 10.8569Z" fill="white"/>
<path fill-rule="evenodd" clip-rule="evenodd" d="M10.6989 14.5077C13.2648 12.6001 14.4879 9.71675 13.5606 7.55342C13.1552 6.60802 12.4439 5.82747 11.5731 5.33626C10.9615 4.9258 10.2336 4.66674 9.46918 4.57926C7.59462 4.24619 5.34449 4.58936 3.13091 5.54149C2.31661 5.89139 1.55549 6.29512 0.870806 6.73586L0 7.29099L0.521819 8.18593L2.14378 10.9616C2.14378 10.9616 2.64233 11.8162 2.64565 11.8128L3.52643 11.3788L3.64941 11.3182L7.68104 20.4325L8.06991 21.3072L8.97395 21.0145L11.1576 20.308L12.1148 19.9984L11.8622 19.016L10.6989 14.5077Z" fill="black"/>
<path fill-rule="evenodd" clip-rule="evenodd" d="M12.5861 7.98031C12.2637 7.23005 11.7086 6.64127 10.9841 6.22745C10.4589 5.87418 9.85068 5.69923 9.28233 5.63531C7.66701 5.34933 5.65618 5.61849 3.539 6.52688C2.78452 6.84987 2.0799 7.21995 1.43178 7.63714L3.05374 10.4128C3.4692 10.2076 3.9179 9.98888 4.16052 9.85767L8.64418 19.988L10.8278 19.2814L9.48175 14.0396C12.0643 12.4348 13.3671 9.80047 12.5861 7.98031Z" fill="white"/>
<path fill-rule="evenodd" clip-rule="evenodd" d="M35.524 10.6453L33.9884 9.24566L34.7429 8.43484L35.4209 7.70476L34.7961 6.92757C33.5763 5.40685 31.6253 4.79789 29.5779 5.29919C26.7295 5.99226 25.1241 8.47521 25.759 11.197C26.0149 12.2938 26.6929 13.2325 27.6734 13.8415C28.8434 14.5716 30.3157 14.7701 31.8147 14.4033C33.3968 14.0164 34.5601 13.3671 35.5805 12.3006L36.3981 11.446L35.524 10.6453Z" fill="#0B0000"/>
<path fill-rule="evenodd" clip-rule="evenodd" d="M33.1633 9.98235C32.7777 10.4433 32.3357 10.8638 31.5513 11.0556C31.2887 11.1195 30.9331 11.1801 30.7071 11.1397L34.0075 7.58351C33.0769 6.42278 31.548 5.88447 29.8163 6.30839C27.6626 6.83324 26.2068 8.65004 26.7452 10.9648C27.1773 12.8253 29.2114 13.9658 31.5712 13.3905C33.0004 13.0406 33.9942 12.4821 34.885 11.5502L33.1633 9.98235Z" fill="white"/>
<path fill-rule="evenodd" clip-rule="evenodd" d="M28.0086 4.71356L32.0502 0L34.2871 3.38125L29.1786 6.16027L28.0086 4.71356Z" fill="#0B0000"/>
<path fill-rule="evenodd" clip-rule="evenodd" d="M31.8771 1.5004L33.0604 3.12878L29.6802 4.82445L29.4442 4.46446L31.8771 1.5004Z" fill="white"/>
<path fill-rule="evenodd" clip-rule="evenodd" d="M29.372 10.0359C29.1294 9.58844 29.1759 9.01313 29.5382 8.61276C29.8872 8.22585 30.419 8.11482 30.8743 8.29314L29.372 10.0359ZM29.5382 8.61276C29.1792 9.01313 29.1294 9.58844 29.372 10.0359L30.8743 8.29314C30.419 8.11482 29.8839 8.22585 29.5382 8.61276ZM31.7086 8.03071C30.9375 7.32082 29.7476 7.37801 29.0463 8.15856C28.345 8.93911 28.4015 10.1436 29.1726 10.8535C29.2357 10.914 29.3055 10.9645 29.3753 11.0116L31.8448 8.16529C31.7983 8.11819 31.7551 8.07445 31.7086 8.03071ZM29.372 10.0359C29.1294 9.58844 29.1759 9.01313 29.5382 8.61276C29.8872 8.22585 30.419 8.11482 30.8743 8.29314L29.372 10.0359Z" fill="black"/>
<path fill-rule="evenodd" clip-rule="evenodd" d="M10.8885 9.71311C10.6958 8.63985 9.31643 8.03762 7.93378 8.78789L8.27944 10.0193L8.82452 11.8361L9.0738 12.6637C10.1108 12.0009 11.1544 11.2002 10.8885 9.71311ZM9.51585 11.3549C9.36628 10.857 9.04389 9.78376 9.04389 9.78376C9.04721 9.79049 8.97741 9.55161 8.90429 9.28582C9.19678 9.23199 9.47597 9.25891 9.70862 9.3733C9.83825 9.43722 10.0609 9.58189 10.1075 9.85778C10.2171 10.4735 10.0078 10.9142 9.51585 11.3549Z" fill="black"/>
<path fill-rule="evenodd" clip-rule="evenodd" d="M11.4809 21.9633C11.4843 21.9733 11.4876 21.9801 11.4909 21.9902C11.4909 21.9935 11.4942 21.9969 11.4942 22.0003C11.4909 21.9868 11.4843 21.9767 11.4809 21.9633Z" fill="black"/>
<path fill-rule="evenodd" clip-rule="evenodd" d="M54.9734 19.8033H55.9672V19.9513H55.5551V21.0448H55.3856V19.9513H54.9734V19.8033Z" fill="black"/>
<path fill-rule="evenodd" clip-rule="evenodd" d="M56.1143 21.0448V19.8033H56.3536L56.7059 20.853L57.0549 19.8033H57.2909V21.0448H57.1347V20.3113C57.1347 20.2844 57.1347 20.2441 57.138 20.1869C57.138 20.1297 57.138 20.0657 57.138 19.9985L56.789 21.0448H56.6262L56.2739 19.9985V20.0355C56.2739 20.0657 56.2739 20.1128 56.2772 20.1734C56.2772 20.234 56.2805 20.2811 56.2805 20.3113V21.0448H56.1143Z" fill="black"/>
</svg>
